0
SECTION
2
HEADER
9
$INSUNITS
70
4
9
$ACADVER
1
AC1014
9
$HANDSEED
5
FFFF
0
ENDSEC
0
SECTION
2
TABLES
0
TABLE
2
VPORT
5
8
100
AcDbSymbolTable
0
ENDTAB
0
TABLE
2
LTYPE
5
5
100
AcDbSymbolTable
0
LTYPE
5
14
100
AcDbSymbolTableRecord
100
AcDbLinetypeTableRecord
2
BYBLOCK
70
0
0
LTYPE
5
15
100
AcDbSymbolTableRecord
100
AcDbLinetypeTableRecord
2
BYLAYER
70
0
0
ENDTAB
0
TABLE
2
LAYER
5
2
100
AcDbSymbolTable
70
2
0
LAYER
5
50
100
AcDbSymbolTableRecord
100
AcDbLayerTableRecord
2
0
70
0
6
CONTINUOUS
0
ENDTAB
0
TABLE
2
STYLE
5
3
100
AcDbSymbolTable
70
1
0
STYLE
5
11
100
AcDbSymbolTableRecord
100
AcDbTextStyleTableRecord
2
STANDARD
70
0
0
ENDTAB
0
TABLE
2
VIEW
5
6
100
AcDbSymbolTable
70
0
0
ENDTAB
0
TABLE
2
UCS
5
7
100
AcDbSymbolTable
70
0
0
ENDTAB
0
TABLE
2
APPID
5
9
100
AcDbSymbolTable
70
2
0
APPID
5
12
100
AcDbSymbolTableRecord
100
AcDbRegAppTableRecord
2
ACAD
70
0
0
ENDTAB
0
TABLE
2
DIMSTYLE
5
A
100
AcDbSymbolTable
70
1
0
ENDTAB
0
TABLE
2
BLOCK_RECORD
5
1
100
AcDbSymbolTable
70
1
0
BLOCK_RECORD
5
1F
100
AcDbSymbolTableRecord
100
AcDbBlockTableRecord
2
*MODEL_SPACE
0
BLOCK_RECORD
5
1B
100
AcDbSymbolTableRecord
100
AcDbBlockTableRecord
2
*PAPER_SPACE
0
ENDTAB
0
ENDSEC
0
SECTION
2
BLOCKS
0
BLOCK
5
20
100
AcDbEntity
100
AcDbBlockBegin
2
*MODEL_SPACE
0
ENDBLK
5
21
100
AcDbEntity
100
AcDbBlockEnd
0
BLOCK
5
1C
100
AcDbEntity
100
AcDbBlockBegin
2
*PAPER_SPACE
0
ENDBLK
5
1D
100
AcDbEntity
100
AcDbBlockEnd
0
ENDSEC
0
SECTION
2
ENTITIES
0
LWPOLYLINE
5
100
100
AcDbEntity
8
0
100
AcDbPolyline
90
4
70
1
43
0.0
10
-76.200200000000024
20
18.822260000000149
10
-0.00020000000001463292
20
18.822260000000153
10
-0.00020000000001019203
20
98.822260000000156
10
-76.200200000000024
20
98.822260000000156
0
LWPOLYLINE
5
101
100
AcDbEntity
8
0
100
AcDbPolyline
90
4
70
1
43
0.0
10
-17.049880000000019
20
24.622260000000146
10
-1.9998800000000188
20
24.622260000000146
10
-1.9998800000000183
20
39.672260000000144
10
-17.049880000000019
20
39.672260000000144
0
LWPOLYLINE
5
102
100
AcDbEntity
8
0
100
AcDbPolyline
90
12
70
1
43
0.0
10
-33.600200000000015
20
24.622260000000146
10
-21.049880000000019
20
24.622260000000146
10
-21.049880000000019
20
39.672260000000144
10
-36.09988000000002
20
39.672260000000144
10
-36.09988000000002
20
25.147260000000141
10
-40.099880000000013
20
25.147260000000141
10
-40.099880000000013
20
39.672260000000144
10
-55.149880000000017
20
39.672260000000144
10
-55.149880000000017
20
24.622260000000146
10
-42.600200000000008
20
24.622260000000146
10
-42.600200000000008
20
22.622260000000143
10
-33.600200000000015
20
22.622260000000143
0
LWPOLYLINE
5
103
100
AcDbEntity
8
0
100
AcDbPolyline
90
4
70
1
43
0.0
10
-74.199880000000022
20
24.622260000000146
10
-59.149880000000017
20
24.622260000000146
10
-59.149880000000017
20
39.672260000000144
10
-74.199880000000022
20
39.672260000000144
0
LWPOLYLINE
5
104
100
AcDbEntity
8
0
100
AcDbPolyline
90
4
70
1
43
0.0
10
-17.049880000000019
20
43.672260000000151
10
-1.9998800000000188
20
43.672260000000151
10
-1.9998800000000183
20
58.722260000000148
10
-17.049880000000019
20
58.722260000000148
0
LWPOLYLINE
5
105
100
AcDbEntity
8
0
100
AcDbPolyline
90
4
70
1
43
0.0
10
-36.09988000000002
20
43.672260000000151
10
-21.049880000000019
20
43.672260000000151
10
-21.049880000000019
20
58.722260000000148
10
-36.09988000000002
20
58.722260000000148
0
LWPOLYLINE
5
106
100
AcDbEntity
8
0
100
AcDbPolyline
90
4
70
1
43
0.0
10
-55.149880000000017
20
43.672260000000151
10
-40.099880000000013
20
43.672260000000151
10
-40.099880000000013
20
58.722260000000148
10
-55.149880000000017
20
58.722260000000148
0
LWPOLYLINE
5
107
100
AcDbEntity
8
0
100
AcDbPolyline
90
4
70
1
43
0.0
10
-74.199880000000022
20
43.672260000000151
10
-59.149880000000017
20
43.672260000000151
10
-59.149880000000017
20
58.722260000000148
10
-74.199880000000022
20
58.722260000000148
0
LWPOLYLINE
5
108
100
AcDbEntity
8
0
100
AcDbPolyline
90
4
70
1
43
0.0
10
-17.049880000000019
20
62.722260000000148
10
-1.9998800000000188
20
62.722260000000148
10
-1.9998800000000183
20
77.772260000000145
10
-17.049880000000019
20
77.772260000000145
0
LWPOLYLINE
5
109
100
AcDbEntity
8
0
100
AcDbPolyline
90
4
70
1
43
0.0
10
-36.09988000000002
20
62.722260000000148
10
-21.049880000000019
20
62.722260000000148
10
-21.049880000000019
20
77.772260000000145
10
-36.09988000000002
20
77.772260000000145
0
LWPOLYLINE
5
110
100
AcDbEntity
8
0
100
AcDbPolyline
90
4
70
1
43
0.0
10
-55.149880000000017
20
62.722260000000148
10
-40.099880000000013
20
62.722260000000148
10
-40.099880000000013
20
77.772260000000145
10
-55.149880000000017
20
77.772260000000145
0
LWPOLYLINE
5
111
100
AcDbEntity
8
0
100
AcDbPolyline
90
4
70
1
43
0.0
10
-74.199880000000022
20
62.722260000000148
10
-59.149880000000017
20
62.722260000000148
10
-59.149880000000017
20
77.772260000000145
10
-74.199880000000022
20
77.772260000000145
0
LWPOLYLINE
5
112
100
AcDbEntity
8
0
100
AcDbPolyline
90
4
70
1
43
0.0
10
-17.049880000000019
20
81.772260000000159
10
-1.9998800000000188
20
81.772260000000159
10
-1.9998800000000183
20
96.822260000000156
10
-17.049880000000019
20
96.822260000000156
0
LWPOLYLINE
5
113
100
AcDbEntity
8
0
100
AcDbPolyline
90
4
70
1
43
0.0
10
-36.09988000000002
20
81.772260000000159
10
-21.049880000000019
20
81.772260000000159
10
-21.049880000000019
20
96.822260000000156
10
-36.09988000000002
20
96.822260000000156
0
LWPOLYLINE
5
114
100
AcDbEntity
8
0
100
AcDbPolyline
90
4
70
1
43
0.0
10
-55.149880000000017
20
81.772260000000159
10
-40.099880000000013
20
81.772260000000159
10
-40.099880000000013
20
96.822260000000156
10
-55.149880000000017
20
96.822260000000156
0
LWPOLYLINE
5
115
100
AcDbEntity
8
0
100
AcDbPolyline
90
4
70
1
43
0.0
10
-74.199880000000022
20
81.772260000000159
10
-59.149880000000017
20
81.772260000000159
10
-59.149880000000017
20
96.822260000000156
10
-74.199880000000022
20
96.822260000000156
0
CIRCLE
5
116
100
AcDbEntity
8
0
100
AcDbCircle
10
-19.050000000000029
20
41.671980000000076
30
0
40
2.5
210
0
220
0
230
1
0
CIRCLE
5
117
100
AcDbEntity
8
0
100
AcDbCircle
10
-19.050000000000029
20
79.772140000000121
30
0
40
2.5
210
0
220
0
230
1
0
CIRCLE
5
118
100
AcDbEntity
8
0
100
AcDbCircle
10
-57.150120000000015
20
41.672020000000067
30
0
40
2.5
210
0
220
0
230
1
0
CIRCLE
5
119
100
AcDbEntity
8
0
100
AcDbCircle
10
-57.150160000000021
20
79.772140000000121
30
0
40
2.5
210
0
220
0
230
1
0
LINE
5
120
100
AcDbEntity
8
0
100
AcDbLine
10
-40.099880000000013
20
25.147260000000141
30
0
11
-36.09988000000002
21
25.147260000000141
31
0
0
LINE
5
121
100
AcDbEntity
8
0
100
AcDbLine
10
-55.149880000000017
20
24.622260000000146
30
0
11
-42.600200000000008
21
24.622260000000146
31
0
0
ENDSEC
0
SECTION
2
OBJECTS
0
DICTIONARY
5
C
100
AcDbDictionary
3
ACAD_GROUP
350
D
3
ACAD_MLINESTYLE
350
17
0
DICTIONARY
5
D
100
AcDbDictionary
0
DICTIONARY
5
1A
330
C
100
AcDbDictionary
0
DICTIONARY
5
17
100
AcDbDictionary
0
ENDSEC
0
EOF
