0
SECTION
2
HEADER
9
$INSUNITS
70
4
9
$ACADVER
1
AC1014
9
$HANDSEED
5
FFFF
0
ENDSEC
0
SECTION
2
TABLES
0
TABLE
2
VPORT
5
8
100
AcDbSymbolTable
0
ENDTAB
0
TABLE
2
LTYPE
5
5
100
AcDbSymbolTable
0
LTYPE
5
14
100
AcDbSymbolTableRecord
100
AcDbLinetypeTableRecord
2
BYBLOCK
70
0
0
LTYPE
5
15
100
AcDbSymbolTableRecord
100
AcDbLinetypeTableRecord
2
BYLAYER
70
0
0
ENDTAB
0
TABLE
2
LAYER
5
2
100
AcDbSymbolTable
70
2
0
LAYER
5
50
100
AcDbSymbolTableRecord
100
AcDbLayerTableRecord
2
0
70
0
6
CONTINUOUS
0
ENDTAB
0
TABLE
2
STYLE
5
3
100
AcDbSymbolTable
70
1
0
STYLE
5
11
100
AcDbSymbolTableRecord
100
AcDbTextStyleTableRecord
2
STANDARD
70
0
0
ENDTAB
0
TABLE
2
VIEW
5
6
100
AcDbSymbolTable
70
0
0
ENDTAB
0
TABLE
2
UCS
5
7
100
AcDbSymbolTable
70
0
0
ENDTAB
0
TABLE
2
APPID
5
9
100
AcDbSymbolTable
70
2
0
APPID
5
12
100
AcDbSymbolTableRecord
100
AcDbRegAppTableRecord
2
ACAD
70
0
0
ENDTAB
0
TABLE
2
DIMSTYLE
5
A
100
AcDbSymbolTable
70
1
0
ENDTAB
0
TABLE
2
BLOCK_RECORD
5
1
100
AcDbSymbolTable
70
1
0
BLOCK_RECORD
5
1F
100
AcDbSymbolTableRecord
100
AcDbBlockTableRecord
2
*MODEL_SPACE
0
BLOCK_RECORD
5
1B
100
AcDbSymbolTableRecord
100
AcDbBlockTableRecord
2
*PAPER_SPACE
0
ENDTAB
0
ENDSEC
0
SECTION
2
BLOCKS
0
BLOCK
5
20
100
AcDbEntity
100
AcDbBlockBegin
2
*MODEL_SPACE
0
ENDBLK
5
21
100
AcDbEntity
100
AcDbBlockEnd
0
BLOCK
5
1C
100
AcDbEntity
100
AcDbBlockBegin
2
*PAPER_SPACE
0
ENDBLK
5
1D
100
AcDbEntity
100
AcDbBlockEnd
0
ENDSEC
0
SECTION
2
ENTITIES
0
LWPOLYLINE
5
100
100
AcDbEntity
8
0
100
AcDbPolyline
90
4
70
1
43
0.0
10
76.200200000000024
20
-16.233750980214428
10
0.00020000000001463292
20
-16.233750980214428
10
0.00020000000001019203
20
-98.822260000000156
10
76.200200000000024
20
-98.822260000000156
0
LWPOLYLINE
5
101
100
AcDbEntity
8
0
100
AcDbPolyline
90
4
70
1
43
0.0
10
16.524880000000021
20
-25.147260000000141
10
2.5248800000000187
20
-25.147260000000141
10
2.5248800000000182
20
-39.147260000000145
10
16.524880000000021
20
-39.147260000000145
0
LWPOLYLINE
5
102
100
AcDbEntity
8
0
100
AcDbPolyline
90
4
70
1
43
0.0
10
35.574880000000022
20
-25.147260000000141
10
21.574880000000022
20
-25.147260000000141
10
21.574880000000022
20
-39.147260000000145
10
35.574880000000022
20
-39.147260000000145
0
LWPOLYLINE
5
103
100
AcDbEntity
8
0
100
AcDbPolyline
90
4
70
1
43
0.0
10
54.624880000000033
20
-25.147260000000141
10
40.624880000000026
20
-25.147260000000141
10
40.624880000000026
20
-39.147260000000145
10
54.624880000000033
20
-39.147260000000145
0
LWPOLYLINE
5
104
100
AcDbEntity
8
0
100
AcDbPolyline
90
4
70
1
43
0.0
10
73.67488000000003
20
-25.147260000000141
10
59.67488000000003
20
-25.147260000000141
10
59.67488000000003
20
-39.147260000000145
10
73.67488000000003
20
-39.147260000000145
0
LWPOLYLINE
5
105
100
AcDbEntity
8
0
100
AcDbPolyline
90
4
70
1
43
0.0
10
16.524880000000021
20
-44.197260000000142
10
2.5248800000000187
20
-44.197260000000142
10
2.5248800000000182
20
-58.197260000000142
10
16.524880000000021
20
-58.197260000000142
0
LWPOLYLINE
5
106
100
AcDbEntity
8
0
100
AcDbPolyline
90
4
70
1
43
0.0
10
35.574880000000022
20
-44.197260000000142
10
21.574880000000022
20
-44.197260000000142
10
21.574880000000022
20
-58.197260000000142
10
35.574880000000022
20
-58.197260000000142
0
LWPOLYLINE
5
107
100
AcDbEntity
8
0
100
AcDbPolyline
90
4
70
1
43
0.0
10
54.624880000000033
20
-44.197260000000142
10
40.624880000000026
20
-44.197260000000142
10
40.624880000000026
20
-58.197260000000142
10
54.624880000000033
20
-58.197260000000142
0
LWPOLYLINE
5
108
100
AcDbEntity
8
0
100
AcDbPolyline
90
4
70
1
43
0.0
10
73.67488000000003
20
-44.197260000000142
10
59.67488000000003
20
-44.197260000000142
10
59.67488000000003
20
-58.197260000000142
10
73.67488000000003
20
-58.197260000000142
0
LWPOLYLINE
5
109
100
AcDbEntity
8
0
100
AcDbPolyline
90
4
70
1
43
0.0
10
16.524880000000021
20
-63.247260000000139
10
2.5248800000000187
20
-63.247260000000139
10
2.5248800000000182
20
-77.247260000000153
10
16.524880000000021
20
-77.247260000000153
0
LWPOLYLINE
5
110
100
AcDbEntity
8
0
100
AcDbPolyline
90
4
70
1
43
0.0
10
35.574880000000022
20
-63.247260000000139
10
21.574880000000022
20
-63.247260000000139
10
21.574880000000022
20
-77.247260000000153
10
35.574880000000022
20
-77.247260000000153
0
LWPOLYLINE
5
111
100
AcDbEntity
8
0
100
AcDbPolyline
90
4
70
1
43
0.0
10
54.624880000000033
20
-63.247260000000139
10
40.624880000000026
20
-63.247260000000139
10
40.624880000000026
20
-77.247260000000153
10
54.624880000000033
20
-77.247260000000153
0
LWPOLYLINE
5
112
100
AcDbEntity
8
0
100
AcDbPolyline
90
4
70
1
43
0.0
10
73.67488000000003
20
-63.247260000000139
10
59.67488000000003
20
-63.247260000000139
10
59.67488000000003
20
-77.247260000000153
10
73.67488000000003
20
-77.247260000000153
0
LWPOLYLINE
5
113
100
AcDbEntity
8
0
100
AcDbPolyline
90
4
70
1
43
0.0
10
16.524880000000021
20
-82.297260000000151
10
2.5248800000000187
20
-82.297260000000151
10
2.5248800000000182
20
-96.297260000000165
10
16.524880000000021
20
-96.297260000000165
0
LWPOLYLINE
5
114
100
AcDbEntity
8
0
100
AcDbPolyline
90
4
70
1
43
0.0
10
35.574880000000022
20
-82.297260000000151
10
21.574880000000022
20
-82.297260000000151
10
21.574880000000022
20
-96.297260000000165
10
35.574880000000022
20
-96.297260000000165
0
LWPOLYLINE
5
115
100
AcDbEntity
8
0
100
AcDbPolyline
90
4
70
1
43
0.0
10
54.624880000000033
20
-82.297260000000151
10
40.624880000000026
20
-82.297260000000151
10
40.624880000000026
20
-96.297260000000165
10
54.624880000000033
20
-96.297260000000165
0
LWPOLYLINE
5
116
100
AcDbEntity
8
0
100
AcDbPolyline
90
4
70
1
43
0.0
10
73.67488000000003
20
-82.297260000000151
10
59.67488000000003
20
-82.297260000000151
10
59.67488000000003
20
-96.297260000000165
10
73.67488000000003
20
-96.297260000000165
0
CIRCLE
5
117
100
AcDbEntity
8
0
100
AcDbCircle
10
19.050000000000029
20
-41.671980000000076
30
0
40
1
210
0
220
0
230
1
0
CIRCLE
5
118
100
AcDbEntity
8
0
100
AcDbCircle
10
19.050000000000029
20
-79.772140000000121
30
0
40
1
210
0
220
0
230
1
0
CIRCLE
5
119
100
AcDbEntity
8
0
100
AcDbCircle
10
57.150160000000021
20
-79.772140000000121
30
0
40
1
210
0
220
0
230
1
0
CIRCLE
5
120
100
AcDbEntity
8
0
100
AcDbCircle
10
57.150120000000015
20
-41.672020000000067
30
0
40
1
210
0
220
0
230
1
0
ENDSEC
0
SECTION
2
OBJECTS
0
DICTIONARY
5
C
100
AcDbDictionary
3
ACAD_GROUP
350
D
3
ACAD_MLINESTYLE
350
17
0
DICTIONARY
5
D
100
AcDbDictionary
0
DICTIONARY
5
1A
330
C
100
AcDbDictionary
0
DICTIONARY
5
17
100
AcDbDictionary
0
ENDSEC
0
EOF
